<?xml version="1.0" standalone="no"?>
<!DOCTYPE svg PUBLIC "-//W3C//DTD SVG 20010904//EN"
 "http://www.w3.org/TR/2001/REC-SVG-20010904/DTD/svg10.dtd">
<svg version="1.0" xmlns="http://www.w3.org/2000/svg"
 width="255.000000pt" height="255.000000pt" viewBox="0 0 255.000000 255.000000"
 preserveAspectRatio="xMidYMid meet">
<metadata>
Created by potrace 1.14, written by Peter Selinger 2001-2017
</metadata>
<g transform="translate(0.000000,255.000000) scale(0.100000,-0.100000)"
fill="#000000" stroke="none">
<path d="M1250 2507 c0 -5 5 -17 11 -29 8 -14 7 -28 -1 -49 -13 -30 -6 -79 11
-79 6 0 6 6 -1 19 -7 13 -7 28 0 46 14 36 13 58 -5 81 -8 10 -15 15 -15 11z"/>
<path d="M1215 2425 c-5 -40 -3 -61 5 -69 9 -8 11 -6 5 12 -4 13 -1 36 5 52 8
19 9 34 2 46 -7 13 -11 3 -17 -41z"/>
<path d="M1306 2451 c4 -16 1 -32 -5 -35 -16 -10 -14 -41 4 -56 17 -14 21 0 5
16 -7 7 -6 20 4 39 11 20 12 34 5 47 -14 26 -19 22 -13 -11z"/>
<path d="M1120 2270 c0 -35 7 -74 15 -90 l16 -30 -37 0 c-36 0 -37 0 -19 -20
17 -18 31 -20 175 -20 144 0 158 2 175 20 18 20 17 20 -26 20 l-43 0 51 48
c28 26 54 57 58 70 9 31 -12 55 -42 47 -13 -3 -23 -1 -23 5 0 6 -55 10 -150
10 l-150 0 0 -60z m278 -16 c-6 -91 -22 -104 -130 -104 -70 0 -82 3 -103 25
-21 20 -25 34 -25 85 l0 60 131 0 131 0 -4 -66z m72 36 c0 -18 -30 -70 -40
-70 -15 0 -12 67 3 73 21 9 37 7 37 -3z"/>
<path d="M631 2174 c-26 -33 -26 -54 -1 -87 40 -51 183 -46 303 11 76 35 132
81 118 95 -6 6 -20 1 -42 -17 -76 -64 -195 -102 -294 -94 -61 5 -77 18 -73 58
3 22 8 25 46 28 43 3 55 15 26 26 -33 13 -63 5 -83 -20z"/>
<path d="M1490 2187 c0 -17 75 -71 134 -97 105 -45 247 -49 287 -9 44 44 8
123 -53 117 -45 -4 -49 -28 -4 -28 38 0 57 -20 48 -52 -17 -68 -225 -43 -346
42 -63 45 -66 46 -66 27z"/>
<path d="M878 2023 c-8 -10 -18 -31 -22 -48 -10 -44 -70 -126 -113 -155 -21
-14 -41 -29 -44 -34 -4 -5 10 -41 31 -81 71 -135 63 -209 -51 -441 -32 -67
-62 -135 -65 -152 -11 -52 22 -135 85 -219 157 -207 506 -544 571 -551 22 -2
47 12 121 74 183 151 460 453 515 561 44 88 39 133 -34 283 -116 238 -124 303
-57 435 19 38 35 75 35 82 0 7 -19 25 -43 42 -50 34 -90 88 -112 150 -26 76 4
71 -420 71 -351 0 -383 -1 -397 -17z m372 -287 l0 -254 -47 -23 c-36 -18 -53
-34 -68 -66 l-20 -42 -169 -1 c-139 0 -167 2 -163 14 55 143 57 229 6 336
l-29 63 50 48 c46 44 100 134 100 167 0 9 41 12 170 12 l170 0 0 -254z m390
242 c0 -33 54 -124 100 -168 l50 -48 -30 -64 c-51 -108 -49 -204 6 -335 5 -10
-33 -13 -168 -13 l-173 1 -20 42 c-14 29 -33 49 -62 65 l-43 23 0 255 0 254
170 0 c129 0 170 -3 170 -12z m-314 -567 c43 -26 60 -71 45 -120 -22 -75 -115
-100 -171 -46 -15 15 -31 38 -35 52 -9 39 13 92 49 114 39 24 73 24 112 0z
m-196 -156 c21 -44 71 -85 104 -85 14 0 16 -35 16 -381 l0 -380 -20 14 c-108
75 -366 338 -489 497 -49 63 -81 132 -81 174 0 18 70 166 92 194 8 9 57 12
183 12 l173 0 22 -45z m708 -45 c68 -129 60 -179 -53 -320 -58 -72 -217 -246
-274 -299 -47 -44 -171 -153 -193 -170 -17 -13 -18 6 -18 365 l1 379 42 20
c31 15 48 33 66 68 l23 47 180 -2 181 -3 45 -85z"/>
<path d="M884 1788 c4 -29 11 -102 16 -162 5 -60 11 -110 12 -111 2 -1 30 -9
63 -18 57 -16 64 -16 125 1 l65 19 12 109 c6 60 12 133 12 162 l1 52 -156 0
-155 0 5 -52z m293 -10 c-4 -24 -9 -79 -12 -123 -10 -136 -8 -131 -76 -145
-49 -11 -68 -10 -112 1 l-52 14 -6 51 c-4 27 -10 94 -14 147 l-7 97 142 0 142
0 -5 -42z"/>
<path d="M940 1748 c0 -13 3 -40 6 -60 l7 -38 63 0 c61 0 64 -1 64 -24 0 -17
-7 -26 -25 -30 -27 -7 -65 8 -65 24 0 6 -9 10 -20 10 -22 0 -26 -20 -10 -50
20 -37 160 -33 160 4 0 7 3 34 6 60 l7 46 -72 0 c-64 0 -71 2 -71 20 0 17 8
19 72 22 60 2 73 6 76 21 3 15 -7 17 -97 17 -98 0 -101 -1 -101 -22z"/>
<path d="M1484 1830 c-45 -10 -54 -18 -54 -50 0 -27 3 -29 43 -33 28 -2 19 -4
-29 -5 -43 -1 -76 -7 -82 -14 -41 -53 -16 -158 39 -158 14 0 19 7 19 26 0 52
15 64 83 64 82 0 97 11 101 78 5 79 -36 111 -120 92z m90 -23 c13 -10 17 -24
14 -67 l-3 -55 -73 -5 c-79 -5 -102 -20 -102 -67 0 -35 -38 -31 -46 4 -23 90
-4 113 92 113 67 0 74 2 74 20 0 17 -7 20 -42 21 -24 1 -35 3 -25 6 13 3 17
11 14 24 -4 16 0 19 37 19 23 0 50 -6 60 -13z"/>
<path d="M1626 1742 c-2 -4 -7 -22 -11 -40 -9 -41 -30 -52 -105 -52 -56 0 -61
-2 -70 -26 -14 -36 -12 -97 3 -118 9 -12 31 -20 65 -24 62 -6 102 15 102 53 0
21 -5 24 -47 28 -38 3 -33 4 23 5 89 2 109 20 108 92 0 27 -6 55 -13 63 -13
17 -49 29 -55 19z m44 -31 c14 -27 13 -94 -2 -109 -7 -7 -42 -12 -85 -12 -66
0 -73 -2 -73 -20 0 -17 7 -20 40 -20 22 0 40 -4 40 -9 0 -5 -7 -8 -16 -7 -9 0
-19 -5 -22 -13 -3 -10 1 -12 18 -8 15 4 20 3 13 -4 -11 -11 -106 -15 -122 -4
-6 3 -11 32 -11 65 0 67 3 70 90 70 49 0 61 4 74 22 9 12 16 33 16 45 0 28 25
30 40 4z"/>
<path d="M1225 1373 c-45 -11 -32 -20 27 -19 35 0 73 -3 86 -7 13 -5 22 -4 22
2 0 20 -86 36 -135 24z"/>
<path d="M1223 1323 c-29 -11 -9 -18 52 -18 36 0 65 3 65 6 0 15 -88 24 -117
12z"/>
<path d="M1245 1280 c-4 -6 8 -10 30 -10 22 0 34 4 30 10 -3 6 -17 10 -30 10
-13 0 -27 -4 -30 -10z"/>
<path d="M1040 1198 c0 -8 -20 -33 -45 -57 -54 -51 -57 -76 -14 -117 l31 -29
-17 36 -17 36 41 53 c41 52 49 74 31 85 -5 3 -10 0 -10 -7z"/>
<path d="M1062 1135 c-41 -18 -54 -51 -35 -88 8 -16 12 -35 9 -43 -7 -18 8
-18 24 1 9 11 9 22 -2 51 -13 36 -12 37 22 65 38 32 32 36 -18 14z"/>
<path d="M891 991 c-7 -5 -10 -14 -7 -20 10 -16 177 -14 201 2 15 12 6 13 -64
9 -56 -3 -81 -1 -81 7 0 13 -29 14 -49 2z"/>
<path d="M1123 989 c23 -13 22 -34 -3 -59 -28 -28 -7 -25 26 3 34 30 27 67
-14 67 -23 -1 -25 -2 -9 -11z"/>
<path d="M916 941 c-4 -5 1 -14 9 -19 27 -14 7 -41 -33 -44 -25 -2 -37 -8 -37
-18 0 -26 52 -41 138 -41 93 -1 157 19 157 47 0 15 -2 15 -21 -2 -29 -26 -193
-33 -224 -10 -20 15 -20 15 5 16 14 1 52 1 85 1 64 -1 104 12 72 25 -9 3 -32
4 -50 0 -17 -3 -39 -1 -47 4 -11 7 -6 10 21 10 52 0 100 11 93 21 -3 5 -31 8
-62 7 -31 -1 -67 2 -79 6 -12 4 -24 2 -27 -3z"/>
<path d="M1145 822 c-18 -10 -66 -18 -120 -22 l-90 -5 60 -8 c33 -4 76 -4 95
-1 43 8 90 31 90 44 0 6 -1 10 -2 9 -2 -1 -16 -8 -33 -17z"/>
<path d="M1391 1088 c0 -24 6 -95 12 -158 l12 -114 60 -19 c57 -17 63 -17 128
-1 37 10 67 23 67 29 0 18 20 226 25 268 l5 37 -155 0 -155 0 1 -42z m283 24
c8 -13 -16 -265 -26 -279 -5 -6 -32 -17 -59 -23 -40 -10 -60 -10 -97 0 -26 7
-50 16 -55 20 -8 7 -37 271 -30 283 6 10 261 9 267 -1z"/>
<path d="M1442 1053 c2 -13 16 -19 48 -23 l45 -5 -42 -17 c-31 -13 -43 -24
-43 -38 0 -18 7 -20 70 -20 74 0 88 -11 54 -44 -24 -24 -74 -17 -74 10 0 8 -9
14 -20 14 -15 0 -20 -7 -20 -30 0 -25 5 -31 40 -41 31 -9 49 -9 79 -1 42 13
51 29 51 95 0 36 -1 37 -37 38 l-38 0 43 19 c29 14 42 25 42 40 0 19 -6 20
-101 20 -90 0 -100 -2 -97 -17z"/>
<path d="M690 1681 c0 -5 7 -25 15 -44 20 -48 19 -136 -1 -187 -23 -56 -9 -63
16 -9 26 58 26 149 0 207 -18 40 -30 53 -30 33z"/>
<path d="M1816 1623 c-16 -57 -17 -96 -1 -150 22 -76 65 -173 77 -173 6 0 7 8
3 18 -55 125 -77 200 -72 242 3 25 9 53 12 63 4 9 3 17 -3 17 -6 0 -13 -8 -16
-17z"/>
<path d="M456 1112 c-4 -8 -5 -39 -1 -70 6 -50 5 -55 -9 -43 -8 7 -18 28 -22
47 -3 19 -10 32 -14 29 -14 -8 8 -79 30 -97 11 -9 24 -18 28 -20 13 -5 72
-108 63 -108 -5 0 -25 18 -44 40 -41 48 -53 52 -32 9 9 -16 37 -43 63 -60 38
-24 122 -116 122 -135 0 -11 -47 21 -72 50 -20 23 -27 27 -28 14 0 -20 77 -88
100 -88 18 0 117 -96 108 -105 -10 -11 -74 22 -101 51 -32 35 -45 27 -16 -10
24 -31 60 -50 108 -60 18 -3 51 -22 72 -41 l39 -35 -35 0 c-20 0 -50 7 -66 16
-41 21 -59 13 -23 -11 18 -12 52 -21 89 -23 55 -4 64 -8 115 -53 l55 -49 -38
0 c-21 0 -54 7 -74 15 -42 18 -43 18 -43 6 0 -16 80 -41 131 -41 40 0 63 -7
105 -32 30 -18 54 -36 54 -39 0 -14 -79 -20 -117 -10 -47 13 -53 13 -53 2 0
-12 91 -32 121 -26 89 18 92 18 142 -26 47 -40 47 -42 32 -66 -25 -38 -47
-105 -33 -101 6 2 16 18 22 35 6 16 18 41 27 54 l16 24 22 -42 c11 -23 21 -49
21 -58 0 -8 5 -15 10 -15 17 0 11 33 -15 78 -13 23 -22 48 -19 55 3 7 26 27
51 46 44 33 46 33 102 22 58 -11 123 -3 144 18 13 13 5 13 -51 0 -45 -10 -112
-3 -112 11 0 5 24 22 54 39 41 24 66 31 105 31 54 0 121 22 121 39 0 6 -15 4
-35 -5 -19 -7 -51 -14 -72 -14 l-38 1 55 49 c49 44 60 49 103 50 47 0 145 39
120 47 -6 2 -25 -3 -42 -11 -16 -9 -47 -16 -68 -16 l-37 0 35 34 c22 22 50 37
74 42 53 9 89 28 114 60 31 39 16 43 -22 6 -29 -29 -97 -60 -97 -45 0 18 81
92 124 113 47 24 96 73 84 85 -3 3 -24 -13 -47 -36 -23 -23 -44 -40 -47 -37
-9 10 71 116 92 122 28 8 94 73 94 94 0 12 -11 4 -34 -23 -19 -22 -37 -37 -40
-34 -8 8 43 99 55 99 22 0 59 54 59 86 0 19 -4 34 -10 34 -5 0 -10 -15 -10
-33 0 -20 -7 -41 -18 -50 -17 -15 -17 -13 -14 56 2 40 1 69 -3 65 -3 -3 -8
-31 -10 -61 -3 -49 -36 -137 -52 -137 -7 0 2 67 12 93 4 9 3 17 -3 17 -17 0
-35 -69 -27 -106 5 -30 0 -44 -30 -90 -20 -30 -40 -52 -45 -49 -10 6 4 71 19
89 8 9 8 16 2 20 -18 11 -43 -53 -38 -98 3 -36 -1 -48 -37 -95 -38 -51 -41
-52 -47 -30 -5 22 -2 43 16 94 6 17 3 16 -15 -5 -17 -19 -21 -34 -18 -76 3
-47 0 -56 -31 -93 -19 -22 -38 -38 -42 -35 -14 9 -10 68 6 91 9 13 11 24 6 28
-20 12 -43 -56 -37 -105 6 -46 5 -48 -36 -84 -24 -20 -46 -36 -50 -36 -16 0
-7 66 12 98 23 37 24 42 10 42 -5 0 -19 -19 -31 -42 -16 -31 -20 -52 -15 -84
5 -40 4 -43 -41 -78 -25 -20 -50 -36 -55 -36 -17 0 -7 68 13 94 21 27 21 44
-1 31 -19 -11 -40 -71 -40 -109 0 -32 -6 -39 -55 -71 -31 -19 -58 -35 -60 -35
-12 0 -3 29 21 64 15 22 21 37 13 34 -20 -7 -59 -68 -59 -93 0 -11 -15 -35
-32 -52 l-33 -32 -31 28 c-19 17 -34 43 -38 64 -6 34 -53 103 -63 93 -3 -2 7
-24 21 -49 14 -24 26 -49 26 -55 0 -6 -29 7 -65 30 -52 33 -64 46 -59 61 9 27
-3 78 -26 107 -27 35 -35 19 -11 -21 22 -36 28 -89 10 -89 -5 0 -30 17 -55 37
-42 35 -44 41 -39 74 7 40 -11 95 -38 118 -22 18 -21 9 3 -36 43 -80 18 -114
-41 -57 -37 36 -39 42 -33 80 6 43 -16 114 -35 114 -14 0 -14 -2 4 -36 16 -32
20 -80 7 -88 -5 -3 -24 10 -43 30 -31 32 -33 39 -34 99 0 48 -5 69 -17 82 -21
20 -25 4 -7 -28 5 -11 9 -37 7 -57 l-3 -37 -41 52 c-38 48 -41 56 -37 97 6 46
-14 96 -37 96 -6 0 -3 -11 5 -24 9 -14 15 -39 13 -58 l-3 -33 -39 58 c-31 47
-37 63 -32 89 7 34 -12 108 -27 108 -5 0 -6 -10 -3 -22 4 -13 10 -39 13 -58 6
-31 5 -34 -10 -22 -21 17 -39 72 -46 142 -4 36 -9 50 -15 42z"/>
</g>
</svg>
